<?xml version="1.0" ?>
<!-- Uploaded to: SVG Repo, www.svgrepo.com, Generator: SVG Repo Mixer Tools -->
<svg fill="#000000" width="800px" height="800px" viewBox="0 0 64 64" xmlns="http://www.w3.org/2000/svg">
<g id="game">
<path d="M54.7,52.4561a1,1,0,0,0-1.4141,0l-.7668.7669-.7669-.7669a1,1,0,0,0-1.414,1.414l.7669.7671-.7669.7671a1,1,0,1,0,1.414,1.4141l.7669-.767.7668.767A1,1,0,1,0,54.7,55.4043l-.767-.7671L54.7,53.87A1,1,0,0,0,54.7,52.4561Z"/>
<circle cx="58" cy="44" r="1"/>
<path d="M39.3345,31.37a22.5127,22.5127,0,0,1-16.669,0,1,1,0,1,0-.7832,1.84,24.1164,24.1164,0,0,0,18.2354,0,1,1,0,1,0-.7832-1.84Z"/>
<circle cx="24" cy="25" r="2"/>
<circle cx="38" cy="25" r="2"/>
<path d="M57,8a3,3,0,1,0,3,3A3.0033,3.0033,0,0,0,57,8Zm0,4a1,1,0,1,1,1-1A1.0009,1.0009,0,0,1,57,12Z"/>
<path d="M31,7A24.0275,24.0275,0,0,0,7,31c0,.1515.0137.3015.0165.4526A3.9862,3.9862,0,0,1,5,28V17a1,1,0,0,0-2,0V28a6.0087,6.0087,0,0,0,4.168,5.7117,23.8651,23.8651,0,0,0,.694,3.6251,6.9948,6.9948,0,1,0,7.145,11.5254A23.99,23.99,0,1,0,31,7ZM12,45H11v1a1,1,0,0,1-2,0V45H8a1,1,0,0,1,0-2H9V42a1,1,0,0,1,2,0v1h1a1,1,0,0,1,0,2Zm-2-8c-.0533,0-.1049.0068-.158.0081A21.8638,21.8638,0,0,1,9.2106,34H13a3.996,3.996,0,0,1,3.858,3ZM31,53a21.8818,21.8818,0,0,1-14.8158-5.762c.0425-.081.0952-.155.1346-.238h3.3624A6.9978,6.9978,0,1,0,26,37H18.91A6.0046,6.0046,0,0,0,13,32H9.0366C9.0217,31.667,9,31.3346,9,31A22,22,0,1,1,31,53Zm-7-8a1,1,0,1,1,1,1A1,1,0,0,1,24,45Zm3-2a1,1,0,1,1,1,1A1,1,0,0,1,27,43Z"/>
</g>
</svg>